<?xml version="1.0" encoding="utf-8"?>
<!-- Generator: Adobe Illustrator 27.5.0, SVG Export Plug-In . SVG Version: 6.00 Build 0)  -->
<svg version="1.1" xmlns="http://www.w3.org/2000/svg" xmlns:xlink="http://www.w3.org/1999/xlink" x="0px" y="0px"
	 viewBox="0 0 2500 2500" style="enable-background:new 0 0 2500 2500;" xml:space="preserve">
<g id="Background">
	<rect style="fill:#FFFFFF;" width="2500" height="2500"/>
</g>
<g id="Illustration">
	<g id="Quarantine_cooking_1_">
		<ellipse style="fill:#F2E6DC;" cx="1250" cy="1249.449" rx="915.064" ry="914.449"/>
		<g>
			<polygon style="fill:#FFFFFF;" points="2056.199,796.342 1248.371,365.606 444.541,796.342 523.176,796.342 523.176,2025.89 
				1975.648,2025.89 1975.648,796.342 			"/>
			<polygon style="fill:#F2E6DC;" points="1266.735,503.662 659.028,837.942 657.023,1920.122 1875.79,1920.122 1873.785,846.12 			
				"/>
			<path style="fill:#363E44;" d="M1993.282,2028.099H540.808c-1.219,0-2.208-0.988-2.208-2.208V802.957h-74.009
				c-1.013,0-1.895-0.688-2.141-1.669c-0.247-0.981,0.205-2.005,1.097-2.484l803.83-431.738c0.656-0.347,1.434-0.354,2.088-0.002
				l807.826,431.738c0.893,0.477,1.346,1.501,1.1,2.484c-0.246,0.981-1.128,1.671-2.141,1.671h-80.759v1222.934
				C1995.49,2027.111,1994.502,2028.099,1993.282,2028.099z M543.016,2023.682h1448.057V800.749c0-1.221,0.988-2.208,2.208-2.208
				h74.151l-799.009-427.024L473.369,798.541h67.44c1.219,0,2.208,0.988,2.208,2.208V2023.682z"/>
		</g>
		<g>
			<rect x="727.467" y="851.156" style="fill:#D3BBA3;" width="432.765" height="641.69"/>
			<rect x="1173.454" y="851.156" style="fill:#D3BBA3;" width="432.765" height="641.69"/>
			<rect x="752.68" y="834.389" style="fill:#FFFFFF;" width="407.95" height="604.895"/>
			<rect x="1170.68" y="834.389" style="fill:#FFFFFF;" width="407.95" height="604.895"/>
			<rect x="1250.381" y="915.727" style="fill:#F2E6DC;" width="264.542" height="39.568"/>
			<rect x="1268.046" y="1062.149" style="fill:#F2E6DC;" width="271.641" height="39.568"/>
			<rect x="1209.623" y="988.938" style="fill:#F2E6DC;" width="273.05" height="39.568"/>
			<rect x="1209.625" y="1135.36" style="fill:#F2E6DC;" width="330.062" height="39.568"/>
			<rect x="1209.625" y="1208.571" style="fill:#F2E6DC;" width="330.062" height="39.568"/>
			<rect x="1209.625" y="1281.782" style="fill:#F2E6DC;" width="330.062" height="39.568"/>
		</g>
		<g>
			<g>
				<path style="fill:#E6D0BE;" d="M1800.988,1112.409l-155.05,44.077l170.872-166.799c5.274-112.132-11.7-206.737-11.7-206.737
					s-35.209,15.46-82.755,46.724l-31.826,217.226l-43.083-160.852c-37.302,32.123-75.228,71.827-106.31,119.261
					c-4.372,6.671-8.465,13.368-12.298,20.079l59.146,246.359l-102.037-122.842c-11.82,85.992,15.027,159.234,59.538,186.756
					c68.273,42.215,189.49-15.509,242.892-177.478C1793.307,1143.233,1797.472,1127.91,1800.988,1112.409z"/>
				<path style="fill:#D3BBA3;" d="M1722.355,829.675c-22.952,15.092-48.772,33.869-74.909,56.375l43.083,160.852L1722.355,829.675z
					"/>
				<path style="fill:#D3BBA3;" d="M1528.838,1025.389c-23.845,41.734-37.455,83.973-42.891,123.518l102.037,122.842
					L1528.838,1025.389z"/>
				<path style="fill:#D3BBA3;" d="M1800.988,1112.409c9.256-40.817,13.948-82.875,15.823-122.721l-170.872,166.799
					L1800.988,1112.409z"/>
				<path style="fill:#D3BBA3;" d="M1582.491,1387.52c-0.065,0-0.127-0.002-0.194-0.009c-1.214-0.106-2.113-1.175-2.008-2.392
					c0.753-8.677,1.216-18.243,1.708-28.372c1.007-20.792,2.15-44.358,6.254-64.726c20.428-101.359,37.658-156.163,63.572-202.201
					c0.597-1.063,1.939-1.445,3.006-0.841c1.063,0.597,1.441,1.943,0.841,3.006c-25.664,45.596-42.762,100.048-63.089,200.908
					c-4.039,20.042-5.173,43.433-6.174,64.068c-0.492,10.172-0.958,19.779-1.719,28.543
					C1584.59,1386.653,1583.626,1387.52,1582.491,1387.52z"/>
			</g>
			<g>
				<path style="fill:#D3BBA3;" d="M2085.967,1410.822l-178.252,64.75l176.728-189.463
					c-12.385-112.725-48.479-204.967-48.479-204.967s-39.569,20.149-91.27,57.734l-1.874,221.262l-78.394-154.935
					c-39.296,37.075-78.074,81.807-107.371,133.347c-4.121,7.249-7.904,14.486-11.374,21.702l111.882,238.211l-142.628-109.086
					c0.19,87.486,44.541,157.067,102.412,178.615c88.766,33.051,224.242-40.811,261.157-209.755
					C2081.913,1442.641,2084.343,1426.777,2085.967,1410.822z"/>
				<path style="fill:#E6D0BE;" d="M1944.694,1138.876c-24.958,18.143-52.734,40.351-80.269,66.327l78.394,154.935
					L1944.694,1138.876z"/>
				<path style="fill:#E6D0BE;" d="M1745.681,1360.251c-21.584,44.878-30.833,88.893-30.746,129.125l142.628,109.086
					L1745.681,1360.251z"/>
				<path style="fill:#E6D0BE;" d="M2085.967,1410.822c4.273-42.013,2.877-84.656-1.524-124.713l-176.728,189.463L2085.967,1410.822
					z"/>
				<path style="fill:#E6D0BE;" d="M1897.639,1911.166c-0.88,0-1.712-0.531-2.055-1.397
					c-36.084-91.507-51.427-191.257-44.367-288.47c5.846-80.522,26.399-158.611,61.086-232.096c0.52-1.102,1.835-1.578,2.939-1.054
					c1.104,0.52,1.574,1.837,1.055,2.939c-34.453,72.991-54.866,150.552-60.676,230.531c-7.011,96.557,8.229,195.637,44.073,286.529
					c0.446,1.134-0.11,2.417-1.244,2.866C1898.182,1911.116,1897.908,1911.166,1897.639,1911.166z"/>
			</g>
		</g>
		<g>
			<g>
				<path style="fill:#BC8271;" d="M592.16,1411.56c-81.281,86.844-330.475,324.168-235.101,420.798
					c78.89,79.928,311.931-161.196,397.971-242.583C700.74,1530.37,646.45,1470.965,592.16,1411.56z"/>
				<path style="fill:#BC8271;" d="M1312.514,1411.477c60.268,102.542,251.38,388.694,137.142,462.078
					c-94.493,60.7-269.012-225.621-335.119-323.881C1180.529,1503.608,1246.521,1457.542,1312.514,1411.477z"/>
				<path style="fill:#EFBC73;" d="M526.175,1401.374c0,0,217.619-103.432,417.401-85.599
					c199.782,17.833,395.104,96.299,395.104,96.299l-95.431,242.53l36.604,389.901H575.389l43.542-374.743L526.175,1401.374z"/>
				<g>
					<path style="fill:#363E44;" d="M1023.04,1719.27l-55.192-39.59l67.692-90.114c0.732-0.975,2.113-1.171,3.091-0.44
						c0.975,0.733,1.172,2.118,0.439,3.092l-64.979,86.504l47.856,34.329l61.156-89.251c0.688-1.003,2.065-1.259,3.07-0.574
						c1.006,0.69,1.263,2.064,0.573,3.071L1023.04,1719.27z"/>
					<path style="fill:#363E44;" d="M875.003,1871.608c-0.445,0-0.896-0.134-1.285-0.414c-0.991-0.712-1.217-2.092-0.507-3.082
						l121.889-169.837c0.709-0.992,2.091-1.221,3.082-0.507c0.991,0.712,1.217,2.092,0.507,3.082l-121.889,169.837
						C876.367,1871.288,875.69,1871.608,875.003,1871.608z"/>
					<path style="fill:#363E44;" d="M988.517,1692.834c-0.445,0-0.896-0.134-1.285-0.414c-0.991-0.712-1.217-2.092-0.507-3.082
						l63.052-87.856c0.71-0.992,2.09-1.221,3.082-0.507c0.991,0.712,1.217,2.092,0.507,3.081l-63.052,87.856
						C989.882,1692.515,989.205,1692.834,988.517,1692.834z"/>
					<path style="fill:#363E44;" d="M1006.09,1705.438c-0.445,0-0.896-0.134-1.285-0.414c-0.991-0.712-1.217-2.092-0.507-3.082
						l63.051-87.856c0.708-0.992,2.09-1.221,3.082-0.507c0.991,0.712,1.217,2.092,0.507,3.082l-63.051,87.856
						C1007.455,1705.119,1006.778,1705.438,1006.09,1705.438z"/>
				</g>
				<g>
					<path style="fill:#BC8271;" d="M445.798,1655.797c91.88,19.986,310.585,56.344,331.793,60.744
						c39.645,8.224,251.257,57.877,247.401,89.181c-1.843,14.958-43.043,7.234-56.895,4.219
						c9.986,7.951,51.644,34.328,45.299,49.987c-7.454,18.397-61.907-5.437-62.989-5.274c10.961,7.045,55.756,33.342,51.456,45.266
						c-5.594,15.514-54.607,3.546-69.113-0.716c0.939,2.427,45.029,30.62,41.208,39.974c-4.232,10.366-50.202,0.299-68.782-1.997
						c-35.229-7.279-173.655-28.218-241.381-35.192c-159.065-16.378-284.875-56.341-284.875-56.341
						S400.712,1678.797,445.798,1655.797z"/>
					<path style="fill:#363E44;" d="M612.988,1687.341c-0.13,0-0.264-0.011-0.398-0.037c-44.578-8.119-136.9-25.125-167.241-31.376
						c-1.195-0.246-1.964-1.415-1.718-2.609c0.247-1.195,1.411-1.962,2.608-1.717c30.302,6.243,122.581,23.242,167.142,31.359
						c1.2,0.218,1.996,1.367,1.777,2.566C614.964,1686.595,614.035,1687.341,612.988,1687.341z"/>
					<path style="fill:#363E44;" d="M968.89,1810.781c-0.396,0-0.797-0.106-1.159-0.33c-7.129-4.408-14.615-8.352-22.251-11.722
						c-13.735-6.066-28.262-10.437-43.179-12.993c-1.202-0.205-2.01-1.346-1.804-2.549c0.206-1.201,1.343-2.008,2.55-1.803
						c15.273,2.616,30.149,7.092,44.216,13.303c7.821,3.455,15.489,7.494,22.79,12.007c1.037,0.64,1.359,2.001,0.717,3.038
						C970.353,1810.41,969.63,1810.781,968.89,1810.781z"/>
					<path style="fill:#363E44;" d="M951.409,1856.006c-0.319,0-0.643-0.069-0.95-0.216c-1.585-0.755-3.21-1.503-4.874-2.236
						c-13.735-6.066-28.262-10.437-43.18-12.993c-1.202-0.205-2.01-1.346-1.804-2.549c0.206-1.201,1.342-2.003,2.55-1.803
						c15.274,2.616,30.15,7.093,44.216,13.303c1.704,0.75,3.37,1.516,4.993,2.292c1.101,0.524,1.567,1.844,1.042,2.943
						C953.024,1855.542,952.232,1856.006,951.409,1856.006z"/>
					<path style="fill:#363E44;" d="M931.882,1900.784c-0.237,0-0.479-0.039-0.716-0.119c-9.275-3.181-18.917-5.639-28.659-7.31
						c-1.202-0.205-2.01-1.348-1.804-2.549c0.206-1.201,1.345-2.005,2.55-1.803c9.975,1.71,19.848,4.227,29.345,7.483
						c1.154,0.397,1.768,1.652,1.373,2.806C933.657,1900.209,932.8,1900.784,931.882,1900.784z"/>
				</g>
				<g>
					<path style="fill:#BC8271;" d="M1411.186,1716.855c80.296-25.734,261.902-84.147,280.34-90.252
						c34.466-11.414,67.539-15.79,98.253-15.79c42.9,11.667,18.669,64.273,17.902,64.885c12.71-3.57,24.998,27.531,12.16,40.461
						c1.818,1.462,17.549,33.296-1.905,46.676c-25.699,14.329-75.743,33.811-131.446,58.802
						c-130.825,58.695-158.918,59.157-227.173,76.383c-49.17,12.409-113.999-46.056-151.861-93.532
						C1339.892,1754.392,1345.536,1767.142,1411.186,1716.855z"/>
					<path style="fill:#363E44;" d="M1387.279,1732.016c-0.934,0-1.803-0.597-2.102-1.533c-0.373-1.16,0.267-2.404,1.427-2.777
						c6.571-2.109,22.181-8.171,38.708-14.588c16.984-6.594,34.546-13.413,42.256-15.891c1.158-0.365,2.402,0.265,2.777,1.427
						c0.373,1.16-0.265,2.405-1.428,2.778c-7.582,2.437-25.082,9.232-42.005,15.802c-16.592,6.443-32.263,12.527-38.958,14.677
						C1387.73,1731.982,1387.501,1732.016,1387.279,1732.016z"/>
				</g>
			</g>
			<g>
				<path style="fill:#363E44;" d="M881.133,1250.424c0,0-61.691-118.008-52.783-173.569c8.907-55.561,58.991-87.75,129.91-74.673
					c70.919,13.077,101.192-81.092,102.661-88.437c1.4-6.997,9.328,18.59,9.328,18.59s6.546,12.115,2.925,33.365
					c0,0,16.189-24.231,13.49-33.365c-2.699-9.135,116.032,148.266-0.81,191.269S874.039,1200.248,881.133,1250.424z"/>
				<path style="fill:#BC8271;" d="M888.032,1172.057l-21.731,180.924c-1.927,16.039,8.605,31.044,24.409,34.417
					c36.434,7.776,69.373,8.115,93.261-10.804c6.888-5.455,11.099-13.618,11.702-22.382l11.017-160.19L888.032,1172.057z"/>
				<path style="fill:#BC8271;" d="M1086.662,1094.692c0,0,1.32,162.564-66.07,175.236c-40.772,7.667-83.696-35.425-95.296-56.599
					c-11.6-21.174-6.481-58.456-6.481-58.456s15.24,11.398,25.387,1.631c10.147-9.767-8.618-62.034,40.412-65.247
					C1033.644,1088.044,1041.224,1108.081,1086.662,1094.692z"/>
				<path style="fill:#363E44;" d="M1003.267,1275.072c-0.115,0-0.231-0.009-0.348-0.028c-23.631-3.733-47.593-21.178-60.856-36.815
					c-0.788-0.929-0.674-2.323,0.255-3.112c0.933-0.787,2.326-0.673,3.113,0.257c12.735,15.011,35.663,31.751,58.178,35.31
					c1.204,0.19,2.026,1.32,1.836,2.525C1005.273,1274.296,1004.334,1275.072,1003.267,1275.072z"/>
				<path style="fill:#BC8271;" d="M943.445,1168.694c5.598,12.51,4.192,36.575-8.321,42.172
					c-12.513,5.597-31.396-9.394-36.994-21.904c-5.598-12.51,0.008-27.189,12.521-32.786
					C923.164,1150.58,937.847,1156.184,943.445,1168.694z"/>
				<g>
					<g>
						<path style="fill:#FFFFFF;" d="M1089.2,1150.285c-0.107,0.313,0.04,0.615-0.068,0.928c-0.004,0.013-0.012,0.022-0.018,0.035
							c-0.072,4.644-0.136,9.543,0.642,14.12c0.344,2.027,1.375,3.351,1.916,5.224c0.397,1.374,0.771,2.691,1.218,4.028
							c12.892-8.42,19.788-21.246,19.788-21.246S1101.973,1149.649,1089.2,1150.285z"/>
						<path style="fill:#363E44;" d="M1074.313,1153.345c-16.859,6.483-26.639,22.55-28.208,25.284
							c0.126,0.219,0.256,0.436,0.388,0.651c3.422,1.099,21.141,6.197,37.727-0.181c3.11-1.196,5.958-2.736,8.58-4.442
							c0.431-1.188,0.809-2.406,1.069-3.681c1.535-7.54-0.405-14.965-4.689-20.669
							C1084.397,1150.567,1079.307,1151.424,1074.313,1153.345z"/>
					</g>
					<g>
						<path style="fill:#FFFFFF;" d="M997.812,1163.388c-1.19,5.358-1.096,9.626,0.97,14.462c12.955,1.838,24.03-1.143,24.03-1.143
							s-7.061-15.669-21.239-25.059C999.414,1155.066,998.656,1159.585,997.812,1163.388z"/>
						<path style="fill:#363E44;" d="M998.506,1177.805c5.615-7.38,6.938-17.403,3.046-26.131c-1.599-1.043-3.263-2.03-5.048-2.886
							c-17.826-8.549-38.245-3.039-38.245-3.039s8.482,19.369,26.308,27.918C989.175,1175.878,993.95,1177.136,998.506,1177.805z"/>
					</g>
				</g>
				<g>
					<path style="fill:#363E44;" d="M911.347,1190.886c-0.851,0-1.661-0.494-2.025-1.324c-0.384-0.88-0.695-1.801-0.926-2.741
						c-0.917-3.731-0.54-7.558,1.06-10.778c1.662-3.345,4.432-5.643,7.8-6.469c1.721-0.425,3.478-0.433,5.223-0.034
						c1.188,0.27,1.932,1.453,1.661,2.644c-0.272,1.188-1.447,1.943-2.645,1.66c-1.071-0.244-2.142-0.237-3.188,0.019
						c-2.083,0.511-3.822,1.984-4.896,4.145c-1.135,2.286-1.393,5.042-0.726,7.761c0.17,0.694,0.401,1.376,0.685,2.025
						c0.488,1.117-0.023,2.42-1.14,2.907C911.942,1190.828,911.643,1190.886,911.347,1190.886z"/>
				</g>
				<path style="fill:#363E44;" d="M1041.041,1203.036c-0.567,0-1.133-0.218-1.566-0.651c-0.86-0.865-0.856-2.262,0.008-3.122
					c1.573-1.566,2.383-3.097,2.407-4.552c0.025-1.395-0.68-2.426-2.035-4.276c-1.032-1.41-2.317-3.166-3.365-5.583
					c-1.336-3.084-1.968-6.512-1.878-10.191c0.03-1.218,1.048-2.124,2.261-2.154c1.218,0.03,2.183,1.042,2.153,2.262
					c-0.073,3.034,0.437,5.835,1.516,8.328c0.851,1.962,1.881,3.37,2.878,4.731c1.511,2.064,2.937,4.013,2.886,6.959
					c-0.043,2.642-1.291,5.203-3.707,7.608C1042.168,1202.822,1041.604,1203.036,1041.041,1203.036z"/>
				<path style="fill:#363E44;" d="M1022.516,1225.638c-1.818,0-3.53-0.397-5.127-1.188c-5.959-2.958-7.812-10.392-7.887-10.707
					c-0.286-1.186,0.443-2.379,1.629-2.663c1.181-0.293,2.375,0.442,2.663,1.622c0.015,0.063,1.47,5.777,5.576,7.8
					c2.17,1.07,4.833,0.929,7.908-0.421c1.122-0.492,2.419,0.022,2.909,1.136c0.49,1.117-0.019,2.42-1.136,2.909
					C1026.75,1225.133,1024.566,1225.638,1022.516,1225.638z"/>
				<path style="fill:#363E44;" d="M866.074,1099.784c0,0-235.232,74.041-194.034-135.479
					c41.198-209.521,269.969-119.489,245.649,91.216L866.074,1099.784z"/>
			</g>
		</g>
		<rect x="335.331" y="2028.016" style="fill:#D3BBA3;" width="1827.161" height="136.984"/>
		<g>
			<path style="fill:#FFFFFF;" d="M1495.435,1964.702c0,41.014-66.596,179.063-258.701,179.063
				c-202.35,0-258.701-138.049-258.701-179.063s115.825-74.262,258.701-74.262S1495.435,1923.688,1495.435,1964.702z"/>
			<ellipse style="fill:#D87355;" cx="1236.733" cy="1964.702" rx="258.701" ry="74.262"/>
			<path style="fill:#E6D0BE;" d="M1469.895,1964.702c0,36.965-104.39,66.93-233.161,66.93c-128.771,0-233.161-29.966-233.161-66.93
				c0-36.964,149.109-128.081,233.161-128.081C1330.036,1836.62,1469.895,1927.737,1469.895,1964.702z"/>
			<path style="fill:#FFD092;" d="M1236.733,2064.894c-114.479,0-214.371-21.204-248.568-52.764
				c-0.896-0.828-0.952-2.225-0.125-3.12c0.828-0.899,2.223-0.951,3.12-0.127c32.915,30.378,133.899,51.595,245.573,51.595
				c108.321,0,205.609-19.537,242.094-48.615c0.951-0.761,2.344-0.602,3.103,0.351c0.759,0.953,0.602,2.342-0.352,3.103
				C1444.373,2044.971,1345.977,2064.894,1236.733,2064.894z"/>
			<g>
				<path style="fill:#8B865C;" d="M1261.589,1816.926c26.099-9.239,57.257,11.503,57.257,11.503s-11.159,35.722-37.258,44.961
					c-26.099,9.239-57.257-11.503-57.257-11.503S1235.49,1826.165,1261.589,1816.926z"/>
				<path style="fill:#363E44;" d="M1216.518,1871.01c-0.619,0-1.234-0.259-1.67-0.763c-0.799-0.921-0.699-2.316,0.223-3.114
					c8.852-7.668,18.536-14.366,28.781-19.911c16.827-9.107,35.051-15.117,54.166-17.862c1.223-0.181,2.327,0.666,2.501,1.872
					c0.173,1.208-0.666,2.327-1.872,2.501c-18.597,2.67-36.325,8.514-52.693,17.375c-9.965,5.391-19.382,11.906-27.992,19.363
					C1217.545,1870.833,1217.03,1871.01,1216.518,1871.01z"/>
			</g>
			<g>
				<path style="fill:#9E9569;" d="M1205.687,2026.692c-18.119-20.93-10.157-57.497-10.157-57.497s37.34-2.633,55.459,18.297
					c18.119,20.93,10.157,57.497,10.157,57.497S1223.806,2047.621,1205.687,2026.692z"/>
				<path style="fill:#363E44;" d="M1270.434,2051.951c-0.345,0-0.697-0.082-1.024-0.252c-10.366-5.447-20.136-12.018-29.036-19.537
					c-14.62-12.348-26.86-27.124-36.383-43.916c-0.601-1.061-0.229-2.409,0.832-3.01c1.061-0.602,2.407-0.231,3.01,0.832
					c9.263,16.337,21.17,30.71,35.389,42.721c8.656,7.31,18.158,13.702,28.24,18.998c1.08,0.567,1.497,1.904,0.929,2.982
					C1271.996,2051.522,1271.228,2051.951,1270.434,2051.951z"/>
			</g>
			<g>
				
					<ellipse transform="matrix(0.525 -0.8511 0.8511 0.525 -953.4015 2059.01)" style="fill:#363E44;" cx="1367.925" cy="1883.638" rx="34.993" ry="54.306"/>
				<path style="fill:#FFFFFF;" d="M1334.903,1855.41c0.173-1.573,14.158-3.325,28.276,0.359
					c29.269,7.637,45.56,35.107,44.355,36.33c-0.972,0.987-12.824-15.572-38.451-26.522
					C1350.277,1857.54,1334.72,1857.082,1334.903,1855.41z"/>
			</g>
			<g>
				<path style="fill:#D87355;" d="M1219.187,1806.463c-0.407-8.771-6.751-16.142-15.378-17.786
					c-13.019-2.48-31.631-2.126-51.023,10.83c-33.961,22.691-31.182,82.075-0.48,112.519c22.203,22.019,54.659,16.386,69.685,13.779
					c6.838-1.187,14.33-2.851,22.115-5.014c10.12-2.811,16.812-11.536,17.665-21.206c0.522-5.925-2.56-11.668-7.722-14.624
					C1228.254,1870.194,1220.776,1840.697,1219.187,1806.463z"/>
				<path style="fill:#E2A18D;" d="M1203.718,1810.982c-7.655-8.198-26.265-5.196-37.646,2.354
					c-18.619,12.349-20.905,38.864-16.454,56.5c5.138,20.359,21.129,36.314,40.095,42.172c27.456,8.479,53.571-4.609,54.015-14.983
					c0.481-11.234-27.629-9.807-37.465-34.628C1197.978,1841.49,1213.609,1821.574,1203.718,1810.982z"/>
				<g>
					<path style="fill:#FFFFFF;" d="M1189.437,1826.821c3.225,2.153,4.876,5.341,3.688,7.12c-1.188,1.779-4.766,1.475-7.992-0.678
						c-3.225-2.153-4.876-5.341-3.688-7.12C1182.633,1824.364,1186.211,1824.667,1189.437,1826.821z"/>
					<path style="fill:#FFFFFF;" d="M1172.817,1850.354c-3.878-0.027-7.01-1.783-6.995-3.923c0.015-2.139,3.171-3.851,7.049-3.824
						c3.878,0.027,7.01,1.783,6.995,3.922S1176.696,1850.381,1172.817,1850.354z"/>
					<path style="fill:#FFFFFF;" d="M1186.016,1854.607c3.579-1.493,7.149-1.103,7.973,0.871c0.824,1.974-1.409,4.785-4.989,6.278
						c-3.579,1.493-7.149,1.103-7.973-0.871C1180.204,1858.911,1182.437,1856.1,1186.016,1854.607z"/>
					<path style="fill:#FFFFFF;" d="M1180.066,1881.019c3.347-1.959,6.937-2.051,8.018-0.204c1.081,1.846-0.756,4.931-4.103,6.89
						c-3.347,1.959-6.937,2.051-8.018,0.205C1174.882,1886.062,1176.719,1882.978,1180.066,1881.019z"/>
					<path style="fill:#FFFFFF;" d="M1205.099,1888.846c1.751-3.46,4.717-5.482,6.627-4.516c1.909,0.966,2.038,4.553,0.288,8.013
						c-1.751,3.46-4.718,5.482-6.627,4.516C1203.478,1895.893,1203.349,1892.306,1205.099,1888.846z"/>
				</g>
			</g>
			<g>
				<path style="fill:#9E9569;" d="M1284.019,1972.812c8.074-1.599,24.071-3.632,42.869,1.923
					c22.671,6.699,36.434,20.595,41.923,26.817c7.343-7.933,14.686-15.867,22.029-23.8c-7.196-4.394-19.538-13.33-28.859-28.995
					c-16.026-26.931-11.533-54.273-10.046-61.754c-4.687,0.528-36.576,4.661-55.84,33.476
					C1281.003,1943.053,1283.214,1966.486,1284.019,1972.812z"/>
				<path style="fill:#8B865C;" d="M1351.223,1874.84c-8.902-8.235-22.796-7.697-31.033,1.203c-3.171,3.426-5.028,7.592-5.621,11.89
					c-0.205-0.223-0.412-0.443-0.637-0.652c-4.52-4.181-11.573-3.907-15.755,0.611c-1.437,1.552-2.335,3.406-2.729,5.336
					c-10.699-9.125-26.79-8.256-36.428,2.157c-9.885,10.68-9.238,27.348,1.444,37.229c0.166,0.153,0.338,0.297,0.506,0.445
					c-2.412,5.109-1.655,11.295,2.152,15.69c-0.351,0.33-0.704,0.654-1.036,1.012c-7.857,8.489-7.343,21.738,1.149,29.593
					c8.491,7.855,21.743,7.341,29.6-1.148c3.177-3.433,4.962-7.647,5.427-11.966c7.215,3.259,15.998,1.747,21.671-4.382
					c3.242-3.503,4.888-7.903,5.007-12.327c6.892,4.4,16.149,3.394,21.898-2.818c5.16-5.575,5.918-13.642,2.462-19.958
					c1.644-0.892,3.177-2.048,4.517-3.496c5.636-6.09,6.119-15.092,1.691-21.694
					C1360.292,1892.929,1358.794,1881.844,1351.223,1874.84z"/>
			</g>
			
				<ellipse transform="matrix(0.989 -0.1482 0.1482 0.989 -269.926 230.3059)" style="fill:#FFFFFF;" cx="1410.484" cy="1926.468" rx="45.657" ry="28.848"/>
			<ellipse style="fill:#9E9569;" cx="1100.578" cy="1971.824" rx="41.383" ry="20.686"/>
			<ellipse style="fill:#9E9569;" cx="1435.04" cy="1974.658" rx="35.714" ry="15.585"/>
			<ellipse style="fill:#FFFFFF;" cx="1314.861" cy="2007.529" rx="35.714" ry="15.585"/>
			<g>
				
					<ellipse transform="matrix(0.9881 -0.1537 0.1537 0.9881 -292.6631 197.4999)" style="fill:#363E44;" cx="1130.589" cy="1990.941" rx="54.309" ry="34.991"/>
				<path style="fill:#FFFFFF;" d="M1087.141,1990.941c-0.891-1.307,8.599-11.725,21.724-18.098
					c27.21-13.212,57.448-2.919,57.327-1.206c-0.098,1.382-19.869-3.503-46.465,4.825
					C1100.211,1982.572,1088.089,1992.332,1087.141,1990.941z"/>
			</g>
			<g>
				<path style="fill:#9E9569;" d="M1031.842,1866.532c1.958,7.993,4.701,23.879-0.011,42.901
					c-5.684,22.941-18.957,37.306-24.93,43.065c8.255,6.98,16.51,13.961,24.764,20.941c4.071-7.382,12.45-20.107,27.688-30.115
					c26.197-17.206,53.719-13.936,61.261-12.785c-0.736-4.658-6.287-36.323-35.939-54.279
					C1061.444,1862.194,1038.127,1865.446,1031.842,1866.532z"/>
				<path style="fill:#8B865C;" d="M1132.735,1929.287c7.832-9.258,6.676-23.11-2.584-30.94c-3.564-3.014-7.811-4.683-12.131-5.084
					c0.214-0.215,0.425-0.431,0.623-0.666c3.977-4.701,3.389-11.733-1.313-15.708c-1.615-1.366-3.507-2.181-5.454-2.487
					c8.642-11.092,7.057-27.124-3.779-36.286c-11.112-9.397-27.739-8.008-37.138,3.101c-0.146,0.172-0.282,0.35-0.422,0.525
					c-5.213-2.182-11.36-1.15-15.582,2.849c-0.345-0.335-0.684-0.674-1.057-0.99c-8.833-7.469-22.049-6.365-29.52,2.466
					c-7.471,8.83-6.367,22.043,2.466,29.512c3.572,3.021,7.862,4.615,12.198,4.888c-2.936,7.351-1.033,16.056,5.344,21.449
					c3.645,3.082,8.115,4.53,12.541,4.452c-4.09,7.08-2.672,16.28,3.792,21.745c5.801,4.905,13.895,5.303,20.053,1.57
					c0.965,1.602,2.188,3.082,3.695,4.356c6.336,5.358,15.354,5.439,21.753,0.722
					C1115.063,1939.151,1126.073,1937.161,1132.735,1929.287z"/>
			</g>
		</g>
		<g>
			<g>
				<path style="fill:#363E44;" d="M628.225,2136.103c-39.724-16.09-66.144-78.92-15.843-124.724
					c26.698-24.311,68.565-30.122,115.721-64.033c95.014-68.327,121.623-142.018,148.563-129.759
					c22.577,10.274,21.341,70.941,16.156,104.44c-14.738,95.223-89.939,155.944-118.947,177.316
					C761.529,2108.439,690.57,2161.356,628.225,2136.103z"/>
				<path style="fill:#8B865C;" d="M833.797,1845.498c14.642-21.655,30.811-36.086,46.601-29.874
					c18.27,7.188,19.477,33.035,15.527,63.756c-2.035-10.603-8.548-20.328-15.147-21.719c-7.122-1.501-14.714,3.513-18.667,11.435
					c2.111-11.114-2.099-21.861-9.869-26.266C843.642,1837.955,834.761,1844.918,833.797,1845.498z"/>
				<path style="fill:#8B865C;" d="M873.001,1834.256c-0.324,0-0.656-0.071-0.967-0.224c-1.096-0.535-1.55-1.859-1.015-2.954
					c5.941-12.156,9.629-25.752,10.662-39.318c1.627-21.34-3.381-38.467-7.869-49.074c-0.475-1.123,0.05-2.42,1.173-2.894
					c1.128-0.477,2.421,0.05,2.894,1.173c4.678,11.058,9.899,28.905,8.205,51.131c-1.075,14.118-4.912,28.269-11.097,40.923
					C874.605,1833.801,873.819,1834.256,873.001,1834.256z"/>
				<path style="fill:#40484C;" d="M818.675,1882.137c-3.737-3.363-29.734,45.165-89.429,87.154
					c-55.041,38.715-99.376,44.188-98.469,49.318c1.03,5.831,59.999,8.29,112.212-28.475
					C797.563,1951.706,822.822,1885.869,818.675,1882.137z"/>
			</g>
			<g>
				<path style="fill:#776E42;" d="M559.58,1816.483c8.409,15.61,22.729,47.257,23.196,89.475
					c0.563,50.918-54.105,129.872-63.444,145.114c20.993,10.092,70.071,6.298,91.065,16.39
					c4.493-17.598,21.759-76.599,48.121-105.713c45.321-50.054,104.487-58.124,120.84-59.802
					c-4.056-9.315-32.771-72.35-104.328-93.757C618.967,1791.422,572.1,1810.819,559.58,1816.483z"/>
				<path style="fill:#9E9569;" d="M803.958,1892.779c11.324-23.543,1.414-51.807-22.136-63.128
					c-9.065-4.358-18.824-5.542-28.051-4.04c0.329-0.563,0.652-1.129,0.938-1.725c5.75-11.955,0.717-26.302-11.239-32.049
					c-4.108-1.975-8.494-2.651-12.72-2.237c12.019-27.808,0.036-60.384-27.52-73.631c-28.26-13.585-62.184-1.695-75.772,26.557
					c-0.211,0.438-0.398,0.883-0.596,1.323c-12.052-1.73-24.314,3.747-30.955,14.37c-0.901-0.513-1.792-1.036-2.741-1.492
					c-22.463-10.799-49.428-1.348-60.229,21.111c-10.801,22.456-1.348,49.414,21.116,60.212c9.085,4.367,18.894,5.372,28.085,3.594
					c-2.143,16.92,6.536,34.043,22.754,41.84c9.27,4.456,19.376,5.057,28.564,2.5c-4.697,16.977,3.238,35.397,19.676,43.299
					c14.753,7.092,31.849,3.542,42.671-7.574c2.878,2.819,6.232,5.245,10.063,7.086c16.115,7.747,34.964,3.038,45.756-10.261
					C772.441,1922.91,794.326,1912.804,803.958,1892.779z"/>
				<path style="fill:#8B865C;" d="M679.176,1932.573c-5.767,0-11.582-1.27-17.024-3.886c-16.054-7.716-24.762-25.108-21.656-42.338
					c-8.998,1.708-18.311,0.515-26.585-3.461c-15.791-7.591-25.272-23.891-24.259-41.195c-9.127,1.197-18.264-0.239-26.58-4.24
					c-11.396-5.48-19.976-15.065-24.16-26.995c-4.183-11.929-3.47-24.773,2.01-36.166c10.998-22.865,31.913-29.619,55.941-18.065
					c0.645,0.308,3.506,1.973,8.561,4.934c0.141,0.082,0.278,0.162,0.411,0.239c6.559-9.667,17.513-19.565,29.293-19.324
					c-0.009-1.794,0.013-2.469,0.317-3.099c14.091-29.302,49.404-41.678,78.717-27.59c27.587,13.262,40.25,44.955,29.86,73.315
					c3.597,0.129,7.131,0.994,10.381,2.555c6.313,3.036,11.067,8.348,13.385,14.955c2.087,5.952,1.974,12.315-0.286,18.131
					c8.688-0.675,17.34,0.923,25.251,4.727c11.922,5.732,20.896,15.759,25.272,28.241c4.376,12.479,3.628,25.916-2.104,37.835
					l-1.99-0.957l1.99,0.957c-9.701,20.174-31.544,31.221-53.471,27.214c-11.832,13.642-31.194,17.707-47.566,9.836
					c-3.266-1.57-6.31-3.595-9.072-6.031C698.413,1928.986,688.865,1932.573,679.176,1932.573z M643.431,1881.189
					c0.577,0,1.141,0.226,1.56,0.645c0.563,0.563,0.781,1.384,0.568,2.152c-4.504,16.277,3.279,33.401,18.504,40.72
					c13.527,6.504,29.652,3.64,40.133-7.123c0.409-0.421,0.968-0.662,1.555-0.668c0.612-0.041,1.153,0.22,1.572,0.63
					c2.822,2.762,6.009,5.01,9.474,6.674c14.931,7.177,32.645,3.202,43.085-9.663c0.521-0.643,1.358-0.945,2.168-0.77
					c20.375,4.289,40.881-5.816,49.89-24.551c5.221-10.855,5.902-23.093,1.916-34.46c-3.985-11.367-12.159-20.501-23.017-25.72
					c-8.339-4.011-17.587-5.344-26.74-3.851c-0.838,0.142-1.691-0.226-2.175-0.929c-0.484-0.705-0.518-1.626-0.086-2.366
					c0.299-0.511,0.594-1.024,0.855-1.568c2.524-5.247,2.854-11.166,0.926-16.663c-1.928-5.495-5.881-9.913-11.132-12.436
					c-3.574-1.721-7.571-2.417-11.549-2.031c-0.781,0.067-1.54-0.265-2-0.897c-0.46-0.63-0.553-1.458-0.243-2.176
					c11.649-26.951,0.031-58.036-26.449-70.766c-27.03-12.997-59.569-1.658-72.694,25.254c-0.026,0.386-0.013,1.001-0.01,1.613
					c0.011,1.842,0,2.512-0.281,3.135c-0.404,0.897-1.36,1.421-2.327,1.279c-10.594-1.514-21.966,8.391-28.528,18.888
					c-0.63,1.005-1.934,1.337-2.965,0.748c-0.252-0.145-1.116-0.649-2.253-1.315c-2.467-1.445-7.602-4.453-8.24-4.764
					c-21.865-10.511-40.106-4.68-50.049,15.999c-4.968,10.329-5.615,21.974-1.823,32.789c3.793,10.817,11.573,19.509,21.905,24.476
					c8.333,4.005,17.565,5.182,26.709,3.416c0.69-0.14,1.413,0.071,1.929,0.556c0.516,0.483,0.77,1.186,0.681,1.889
					c-2.086,16.477,6.562,32.381,21.52,39.573c8.397,4.037,17.99,4.871,27.016,2.363
					C643.035,1881.215,643.234,1881.189,643.431,1881.189z"/>
				<path style="fill:#9E9569;" d="M599.552,1937.608c-0.329,0-0.615-0.056-0.843-0.127c-2.884-0.912-2.405-4.03-1.125-12.361
					c0.995-6.482,2.5-16.277,2.825-28.096c0.367-13.394-0.836-26.908-3.574-40.166c-0.246-1.195,0.522-2.361,1.717-2.609
					c1.185-0.246,2.362,0.522,2.609,1.717c2.807,13.59,4.039,27.445,3.663,41.179c-0.331,12.095-1.862,22.054-2.875,28.646
					c-0.251,1.637-0.507,3.297-0.692,4.716c3.099-4.902,8.084-15.544,11.156-28.034c2.702-10.981,3.62-22.423,2.728-34.005
					c-0.094-1.216,0.816-2.279,2.032-2.372c1.223-0.11,2.277,0.817,2.371,2.031c0.927,12.055-0.029,23.965-2.842,35.402
					c-3.654,14.851-11.201,31.195-15.526,33.625C600.568,1937.496,600.017,1937.608,599.552,1937.608z"/>
				<path style="fill:#9E9569;" d="M628.959,1955.215c-0.631,0-1.223-0.19-1.798-0.584c-5.445-3.726,6.052-23.175,9.19-27.79
					c6.412-9.43,14.901-17.39,25.232-23.656c1.043-0.632,2.401-0.302,3.033,0.742c0.633,1.042,0.3,2.4-0.743,3.032
					c-9.785,5.939-17.815,13.463-23.869,22.367c-5.657,8.317-9.206,17.034-9.865,20.691c1.663-1.238,4.291-3.748,6.513-5.868
					c2.549-2.435,5.439-5.191,8.642-7.94c13.446-11.535,29.911-20.549,48.938-26.792c1.16-0.384,2.408,0.25,2.787,1.41
					c0.381,1.158-0.251,2.407-1.409,2.786c-18.475,6.062-34.436,14.793-47.441,25.946c-3.115,2.674-5.959,5.387-8.468,7.783
					C634.554,1952.254,631.453,1955.213,628.959,1955.215z M630.076,1951.493h0.023H630.076z"/>
				<path style="fill:#8B865C;" d="M677.813,1847.6c-0.98,0-1.876-0.658-2.135-1.65c-0.875-3.345-2.229-6.562-4.025-9.559
					c-10.355-17.278-32.84-22.921-50.132-12.564c-7.196,4.309-12.728,11.02-15.577,18.891c-0.416,1.147-1.681,1.745-2.828,1.326
					c-1.146-0.416-1.74-1.682-1.325-2.827c3.194-8.826,9.395-16.348,17.462-21.178c19.375-11.613,44.582-5.286,56.189,14.084
					c2.011,3.355,3.528,6.961,4.508,10.711c0.308,1.18-0.398,2.387-1.578,2.695C678.185,1847.576,677.997,1847.6,677.813,1847.6z"/>
				<g>
					<path style="fill:#8B865C;" d="M662.599,1825.121c-0.523,0-1.048-0.186-1.47-0.561c-0.91-0.813-0.989-2.208-0.177-3.118
						c1.904-2.133,4.047-4.078,6.368-5.779c9.971-7.31,22.561-9.725,34.54-6.614c1.181,0.306,1.889,1.512,1.583,2.691
						c-0.306,1.18-1.515,1.898-2.691,1.583c-10.691-2.769-21.925-0.623-30.82,5.902c-2.073,1.52-3.986,3.254-5.684,5.158
						C663.811,1824.873,663.206,1825.121,662.599,1825.121z"/>
				</g>
				<path style="fill:#8B865C;" d="M603.654,1803.369c-0.023,0-0.045,0-0.068,0c-1.219-0.039-2.177-1.057-2.14-2.275
					c0.465-15.27,11.128-28.616,25.933-32.454c15.74-4.078,32.427,3.491,39.682,18.013c0.546,1.091,0.102,2.417-0.989,2.963
					c-1.095,0.543-2.416,0.101-2.962-0.988c-6.329-12.669-20.885-19.266-34.623-15.714c-12.917,3.351-22.222,14.994-22.628,28.314
					C605.823,1802.425,604.842,1803.369,603.654,1803.369z"/>
				<path style="fill:#8B865C;" d="M733.728,1901.285c-0.656,0-1.305-0.291-1.74-0.847c-0.751-0.96-0.582-2.348,0.379-3.099
					c2.134-1.671,4.024-3.644,5.615-5.861c4.455-6.204,6.228-13.771,4.99-21.308c-1.238-7.537-5.337-14.14-11.542-18.593
					c-5.334-3.83-11.884-5.706-18.414-5.316c-1.19,0.045-2.264-0.85-2.339-2.068c-0.074-1.219,0.852-2.266,2.069-2.34
					c7.564-0.457,15.103,1.716,21.258,6.135c7.164,5.141,11.896,12.764,13.326,21.465c1.429,8.701-0.617,17.437-5.76,24.599
					c-1.836,2.56-4.017,4.835-6.482,6.763C734.685,1901.131,734.205,1901.285,733.728,1901.285z"/>
				<g>
					<path style="fill:#8B865C;" d="M574.509,1795.949c-0.635,0-1.266-0.272-1.703-0.8c-5.102-6.167-12.455-9.488-20.06-9.236
						c-1.781,0.071-3.551,0.339-5.257,0.798c-1.179,0.319-2.389-0.382-2.706-1.559c-0.316-1.177,0.382-2.389,1.559-2.706
						c2.025-0.543,4.122-0.863,6.232-0.944c9.015-0.39,17.649,3.597,23.636,10.832c0.777,0.94,0.646,2.333-0.294,3.11
						C575.504,1795.783,575.005,1795.949,574.509,1795.949z"/>
				</g>
			</g>
			<g>
				<path style="fill:#8B865C;" d="M553.348,2101.292c45.424-37.373,17.768-116.507-1.19-140.872
					c-35.042-45.034-64.738-39.481-87.877-57.23c-13.668-10.484-65.902-78.907-98.284-65.168
					c-27.669,11.739,2.88,84.583,6.972,105.038c5.413,27.062-11.804,73.833,12.348,123.898
					C409,2116.052,497.773,2147.016,553.348,2101.292z"/>
				<path style="fill:#EFBC73;" d="M571.487,2089.996c45.424-37.373,35.092-97.455,16.134-121.819
					c-35.042-45.034-64.738-39.481-87.877-57.23c-13.668-10.484-89.474-89.318-121.855-75.579
					c-27.669,11.739,26.452,94.994,30.543,115.449c5.413,27.062-9.505,54.53,6.848,94.498
					C435.921,2095.763,515.911,2135.721,571.487,2089.996z"/>
				<path style="fill:#8B865C;" d="M524.284,2112.258c-8.252,0-16.702-1.063-25.238-3.215
					c-34.153-8.611-65.074-33.884-76.941-62.891c-10.257-25.069-8.448-45.423-6.851-63.38c0.979-11.011,1.903-21.409-0.12-31.523
					c-1.149-5.743-6.671-17.172-13.066-30.406c-13.48-27.902-30.257-62.625-23.999-79.265c1.463-3.888,4.095-6.661,7.825-8.244
					c27.941-11.83,84.442,39.92,111.602,64.799c5.646,5.169,10.104,9.253,12.461,11.063c7.771,5.96,16.549,9.299,25.842,12.833
					c18.36,6.981,39.17,14.895,62.432,44.792c17.841,22.927,31.894,85.087-16.473,124.88
					C565.272,2105.265,545.44,2112.258,524.284,2112.258z M395.293,1835.968c-2.792,0-5.364,0.453-7.674,1.434
					c-2.61,1.106-4.381,2.982-5.416,5.732c-5.592,14.869,11.421,50.077,23.842,75.788c6.525,13.506,12.161,25.17,13.42,31.46
					c2.148,10.739,1.196,21.446,0.189,32.78c-1.551,17.456-3.311,37.242,6.538,61.316c11.363,27.773,41.075,51.996,73.935,60.281
					c29.028,7.321,57.022,1.471,78.826-16.471c46.049-37.885,32.744-96.973,15.794-118.755
					c-22.504-28.922-42.699-36.601-60.516-43.377c-9.605-3.653-18.677-7.101-26.961-13.458c-2.509-1.924-6.807-5.861-12.755-11.308
					C472.328,1881.07,423.089,1835.968,395.293,1835.968z"/>
				<path style="fill:#B77250;" d="M555.2,2031.631c19.495-13.466,17.348-56.657-1.729-82.903
					c-24.372-33.529-79.132-43.184-95.64-23.977c-14.018,16.308,0.572,52.232,16.27,72.329
					C494.187,2022.792,534.375,2046.013,555.2,2031.631z"/>
			</g>
			<g>
				<polygon style="fill:#363E44;" points="650.508,2153.276 653.711,2161.612 649.929,2159.238 647.603,2162.523 644.462,2158.707 
					640.549,2162.84 638.451,2158.625 632.453,2163.558 636.242,2150.386 				"/>
				<path style="fill:#D87355;" d="M550.674,2058.291c0,52.661,36.5,95.697,92.75,95.697c56.25,0,93.982-42.569,93.982-95.229
					c0-45.271-26.961-72.451-68.402-73.854c-7.219-0.244-19.068,4.207-26.961,4.207c-9.189,0-22.377-4.674-30.456-4.207
					C571.144,1987.242,550.674,2014.234,550.674,2058.291z"/>
				<path style="fill:#363E44;" d="M641.045,1999.095c-0.204,0-0.41-0.028-0.615-0.086c-1.172-0.341-1.847-1.563-1.507-2.736
					c2.744-9.482-0.441-21.306-9.736-36.146c-0.647-1.035-0.334-2.398,0.7-3.045c1.034-0.649,2.396-0.332,3.044,0.699
					c10,15.971,13.348,28.963,10.234,39.722C642.886,1998.467,642.003,1999.095,641.045,1999.095z"/>
			</g>
		</g>
		<g>
			<g>
				<path style="fill:#E2A18D;" d="M1516.563,1749.455c-59.199-1.966-230.507,2.191-230.958-65.399
					c-0.374-55.907,166.586-53.041,225.54-54.672C1512.952,1669.408,1514.757,1709.432,1516.563,1749.455z"/>
				<path style="fill:#E2A18D;" d="M1911.564,1709.252c40.47,43.24,164.543,161.403,117.057,209.515
					c-39.279,39.796-155.31-80.259-198.15-120.782C1857.501,1768.407,1884.532,1738.829,1911.564,1709.252z"/>
				<path style="fill:#84524D;" d="M1929.438,1704.092c0,0-102.921-82.161-241.358-82.161c-138.733,0-226.102,3.352-226.102,3.352
					l56.722,191.78v206.698h330.023v-206.698L1929.438,1704.092z"/>
				<g>
					
						<ellipse transform="matrix(0.9554 -0.2952 0.2952 0.9554 -443.6835 578.2189)" style="fill:#FFD092;" cx="1693.511" cy="1758.813" rx="47.678" ry="65.179"/>
					<path style="fill:#FFD092;" d="M1790.401,2025.293l-96.176-266.7c-0.13-0.357-0.514-0.567-0.89-0.47
						c-0.4,0.104-0.641,0.511-0.537,0.911l68.787,266.26H1790.401z"/>
					<path style="fill:#363E44;" d="M1715.814,1804.51c-0.455,0-0.914-0.14-1.311-0.431c-0.979-0.727-1.188-2.109-0.464-3.09
						c9.169-12.406,11.302-31.652,5.568-50.228c-6.465-20.935-21.838-36.908-38.253-39.745c-1.203-0.207-2.008-1.35-1.801-2.551
						c0.207-1.203,1.354-1.999,2.551-1.801c18.013,3.112,34.779,20.312,41.721,42.795c6.142,19.891,3.754,40.642-6.232,54.157
						C1717.16,1804.199,1716.491,1804.51,1715.814,1804.51z"/>
				</g>
				<g>
					<path style="fill:#E2A18D;" d="M1984.437,1830.857c-45.747,9.951-154.64,28.054-165.2,30.244
						c-19.739,4.095-115.114,13.062-107.185,40.434c1.938,6.692,9.62,6.87,12.332,6.069c-4.972,3.958-11.58,9.702-8.421,17.499
						c3.712,9.16,16.69,4.682,17.229,4.764c-5.457,3.508-10.912,10.859-8.771,16.796c2.786,7.725,10.34,7.507,17.563,5.385
						c-0.468,1.208-9.499,4.71-6.569,14.061c2.151,6.866,10.582,7.206,20.298,4.848c17.541-3.624,223.822-34.739,261.421-45.416
						C2031.852,1921.362,2006.885,1842.309,1984.437,1830.857z"/>
					<path style="fill:#363E44;" d="M1885.41,1851.182c-1.046,0-1.975-0.746-2.169-1.814c-0.22-1.199,0.576-2.348,1.777-2.566
						c23.305-4.244,84.164-16.068,98.974-19.119c1.203-0.239,2.363,0.524,2.609,1.717c0.246,1.195-0.524,2.363-1.717,2.609
						c-14.828,3.053-75.75,14.89-99.078,19.136C1885.673,1851.171,1885.541,1851.182,1885.41,1851.182z"/>
					<path style="fill:#363E44;" d="M1723.991,1909.132c-0.74,0-1.462-0.371-1.88-1.046c-0.641-1.037-0.321-2.398,0.716-3.041
						c3.67-2.271,7.535-4.307,11.485-6.049c7.08-3.127,14.576-5.382,22.274-6.702c1.203-0.203,2.344,0.602,2.549,1.803
						c0.207,1.201-0.602,2.344-1.803,2.549c-7.34,1.259-14.487,3.409-21.237,6.392c-3.765,1.66-7.446,3.599-10.944,5.764
						C1724.789,1909.026,1724.388,1909.132,1723.991,1909.132z"/>
					<path style="fill:#363E44;" d="M1732.694,1931.65c-0.826,0-1.617-0.464-1.995-1.257c-0.526-1.1-0.058-2.42,1.042-2.943
						c0.819-0.39,1.658-0.774,2.516-1.156c7.088-3.129,14.582-5.385,22.276-6.7c1.225-0.205,2.344,0.602,2.549,1.803
						c0.207,1.203-0.602,2.344-1.803,2.549c-7.338,1.257-14.483,3.405-21.237,6.39c-0.819,0.36-1.62,0.727-2.4,1.1
						C1733.337,1931.58,1733.014,1931.65,1732.694,1931.65z"/>
					<path style="fill:#363E44;" d="M1742.416,1953.945c-0.919,0-1.775-0.576-2.09-1.492c-0.395-1.154,0.22-2.409,1.374-2.806
						c4.785-1.639,9.758-2.907,14.782-3.769c1.203-0.207,2.344,0.602,2.549,1.803c0.207,1.201-0.6,2.344-1.803,2.549
						c-4.792,0.824-9.536,2.033-14.097,3.597C1742.895,1953.906,1742.653,1953.945,1742.416,1953.945z"/>
				</g>
				<g>
					<path style="fill:#E2A18D;" d="M1491.878,1419.305c6.464-6.833,21.067,9.619,26.728,0.02
						c3.873-6.568-4.844-15.089-12.249-19.917c-2.35-1.533-12.213-7.962-24.125-4.023L1491.878,1419.305z"/>
					<path style="fill:#E2A18D;" d="M1386.774,1735.82c57.919-109.335,91.765-182.788,119.854-229.867
						c12.61-21.133,29.267-39.882,27.957-63.51c-0.581-10.476-3.051-21.084-10.693-19.881c-11.933,1.88-7.071,34.403-16.838,35.667
						c-9.814,1.269-23.188-30.458-15.177-38.924c6.464-6.833,21.067,9.619,26.728,0.02c3.873-6.568-4.844-15.089-12.249-19.917
						c-2.35-1.533-12.213-7.962-24.125-4.023c-12.602,4.166-16.631,16.34-17.021,17.587c-4.292-6.197-11.297-9.043-16.436-7.301
						c-6.86,2.325-11.561,13.224-6.084,23.378c-0.901-1.125-7.667-9.406-12.962-7.913c-5.192,1.464-8.678,12.245-5.473,26.853
						c-5.669-6.354-11.52-8.639-14.36-7.254c-7.964,3.877-10.076,20.26,0.745,56.746c-16.285,25.073-120.65,171.866-120.65,171.866
						S1299.895,1721.87,1386.774,1735.82z"/>
					<path style="fill:#363E44;" d="M1394.635,1723.125c-0.345,0-0.697-0.082-1.024-0.255c-1.08-0.567-1.497-1.902-0.927-2.98
						c17.946-34.147,33.341-64.344,46.034-89.378c0.55-1.089,1.882-1.529,2.967-0.97c1.087,0.55,1.522,1.88,0.97,2.967
						c-12.699,25.049-28.103,55.263-46.064,89.434C1396.196,1722.696,1395.428,1723.125,1394.635,1723.125z"/>
					<path style="fill:#363E44;" d="M1433.934,1480.821c-5.484,0-13.495-4.11-20.682-11.058c-0.875-0.847-0.899-2.245-0.052-3.123
						c0.85-0.871,2.245-0.899,3.123-0.052c9.217,8.91,17.575,10.899,19.292,9.43c1.576-1.356,1.029-9.277-5.602-18.955l-1.162-1.697
						l1.635-1.473c0.966-0.772,2.374-0.649,3.202,0.267c8.404,9.173,16.206,12.305,18.371,10.961
						c2.396-1.482,3.153-11.563-3.942-25.547l-0.912-1.798l1.755-1.264c1.031-0.645,2.374-0.401,3.114,0.576
						c7.526,9.827,16.204,13.534,19.106,11.843c3.099-1.79,4.35-13.068-2.911-26.119c-0.593-1.065-0.209-2.411,0.856-3.004
						c1.07-0.595,2.413-0.207,3.004,0.856c8.141,14.636,7.198,28.659,1.259,32.092c-4.091,2.359-10.745,0.198-17.17-5.031
						c3.123,10.047,2.609,18.403-1.835,21.153c-3.401,2.1-9.089,0.498-15.278-3.925c2.34,6.441,2.271,11.934-0.608,14.411
						C1437.348,1480.351,1435.784,1480.821,1433.934,1480.821z M1433.647,1454.553c0.004,0.009,0.011,0.017,0.017,0.026
						C1433.658,1454.57,1433.651,1454.562,1433.647,1454.553z"/>
					<path style="fill:#363E44;" d="M1443.787,1523.764c-0.386,0-0.776-0.101-1.13-0.313c-1.048-0.625-1.389-1.982-0.763-3.028
						c2.027-3.392,5.318-10.433,4.585-19.488c-0.858-10.627-6.808-17.756-9.327-20.329c-0.852-0.871-0.839-2.268,0.035-3.122
						c0.869-0.854,2.266-0.837,3.122,0.034c3.545,3.619,9.633,11.429,10.573,23.059c0.83,10.282-2.898,18.267-5.197,22.11
						C1445.27,1523.38,1444.537,1523.764,1443.787,1523.764z"/>
					<g>
						<path style="fill:#8B865C;" d="M1550.593,1476.15c0,28.717-31.08,51.997-31.08,51.997s-31.08-23.28-31.08-51.997
							s31.08-51.998,31.08-51.998S1550.593,1447.433,1550.593,1476.15z"/>
						<path style="fill:#363E44;" d="M1523.569,1509.219c-0.145,0-0.289-0.013-0.436-0.043c-1.197-0.239-1.971-1.404-1.732-2.599
							c3.83-19.113,4.25-38.477,1.251-57.562c-3.927-24.985-13.881-49.217-28.791-70.08c-0.709-0.992-0.481-2.37,0.513-3.079
							c0.99-0.712,2.37-0.479,3.079,0.513c15.307,21.418,25.528,46.301,29.563,71.961c3.079,19.6,2.648,39.491-1.285,59.115
							C1525.523,1508.494,1524.6,1509.219,1523.569,1509.219z"/>
					</g>
				</g>
			</g>
			<g>
				<g>
					<ellipse style="fill:#363E44;" cx="1686.725" cy="1418.19" rx="118.747" ry="118.717"/>
					<path style="fill:#E2A18D;" d="M1686.488,1683.685h0.096c25.49,0,46.154-20.664,46.154-46.154v-89.935
						c0-25.49-20.664-46.154-46.154-46.154h-0.096c-25.49,0-46.154,20.664-46.154,46.154v89.935
						C1640.334,1663.021,1660.998,1683.685,1686.488,1683.685z"/>
					<ellipse style="fill:#E2A18D;" cx="1686.536" cy="1460.911" rx="96.857" ry="113.338"/>
					<path style="fill:#363E44;" d="M1648.976,1372.624l-6.572,40.448h-51.987c0.132-53.088,43.215-96.086,96.348-96.086
						c53.135,0,96.218,42.998,96.35,96.086h-129.03L1648.976,1372.624z"/>
					
						<ellipse transform="matrix(0.4153 -0.9097 0.9097 0.4153 -290.4852 2486.7336)" style="fill:#E2A18D;" cx="1789.289" cy="1469.347" rx="38.148" ry="25.681"/>
					<path style="fill:#363E44;" d="M1795.689,1486.492c-0.623,0-1.242-0.263-1.68-0.774c-0.791-0.929-0.681-2.323,0.246-3.114
						c2.667-2.275,4.936-5.359,6.562-8.917c2.111-4.63,2.89-9.501,2.191-13.717c-0.647-3.897-2.486-6.717-5.18-7.946
						c-1.995-0.912-4.367-0.895-6.853,0.041c-1.143,0.421-2.413-0.149-2.844-1.292c-0.427-1.143,0.151-2.415,1.292-2.844
						c3.612-1.354,7.149-1.333,10.239,0.076c4.073,1.859,6.808,5.853,7.703,11.244c0.843,5.074-0.056,10.853-2.53,16.273
						c-1.891,4.143-4.559,7.752-7.711,10.444C1796.707,1486.32,1796.198,1486.492,1795.689,1486.492z"/>
					
						<ellipse transform="matrix(0.9097 -0.4153 0.4153 0.9097 -467.3633 789.8331)" style="fill:#E2A18D;" cx="1582.081" cy="1469.347" rx="25.681" ry="38.148"/>
					<path style="fill:#363E44;" d="M1686.348,1578.081c-16.682,0-32.608-4.485-47.334-13.329c-1.046-0.628-1.384-1.984-0.757-3.03
						c0.627-1.046,1.982-1.387,3.03-0.757c14.032,8.427,29.192,12.699,45.061,12.699c15.956,0,31.191-4.317,45.281-12.831
						c1.046-0.632,2.402-0.298,3.032,0.746c0.632,1.044,0.297,2.402-0.746,3.032
						C1719.333,1573.423,1702.886,1578.081,1686.348,1578.081z"/>
					<path style="fill:#363E44;" d="M1596.161,1504.565c-0.929,0-1.794-0.591-2.098-1.52c-4.44-13.557-6.691-27.85-6.691-42.484
						c0-6.228,0.416-12.49,1.24-18.61c0.162-1.21,1.264-2.062,2.482-1.896c1.21,0.162,2.057,1.274,1.896,2.482
						c-0.798,5.928-1.201,11.992-1.201,18.024c0,14.166,2.178,27.997,6.472,41.108c0.38,1.16-0.252,2.407-1.41,2.786
						C1596.621,1504.531,1596.388,1504.565,1596.161,1504.565z"/>
					<path style="fill:#363E44;" d="M1776.869,1504.095c-0.231,0-0.464-0.037-0.694-0.112c-1.158-0.384-1.786-1.632-1.402-2.79
						c4.255-12.831,6.411-26.382,6.411-40.282c0-6.896-0.541-13.803-1.611-20.527c-0.192-1.205,0.63-2.335,1.833-2.527
						c1.229-0.198,2.338,0.63,2.527,1.833c1.106,6.954,1.667,14.092,1.667,21.222c0,14.373-2.232,28.394-6.635,41.671
						C1778.657,1503.509,1777.794,1504.095,1776.869,1504.095z"/>
					<g>
						<path style="fill:#FFFFFF;" d="M1707.202,1467.757c0,0,5.327,2.918,12.856,4.854c7.023,1.806,22.114-9.882,22.114-9.882
							s17.816-1.304,21.959-7.639c3.696-5.651,5.483-10.366,5.483-10.366s-5.481-3.003-13.182-4.937
							c-6.972-1.751-19.255,10.577-19.255,10.577s-17.455-2.31-21.526,2.884C1709.942,1460.529,1707.202,1467.757,1707.202,1467.757
							z"/>
						<path style="fill:#363E44;" d="M1744.337,1472.298c9.149-3.377,15.707-10.939,19.847-17.292
							c-0.224-1.882-0.645-3.767-1.33-5.623c-1.406-3.806-3.667-7.042-6.469-9.605c-6.965-1.744-15.735-2.612-23.906,0.405
							c-7.178,2.649-12.756,7.874-16.828,13.071c-0.825,4.262-0.56,8.791,1.053,13.162c0.841,2.277,1.995,4.346,3.378,6.198
							C1727.102,1474.415,1736.027,1475.365,1744.337,1472.298z"/>
					</g>
					<path style="fill:#363E44;" d="M1684.604,1503.832c-0.403,0-0.813-0.11-1.18-0.343c-4.02-2.549-6.484-5.637-7.325-9.178
						c-0.927-3.895,0.446-7.011,1.9-10.308c0.983-2.23,2.098-4.759,2.728-7.987c0.8-4.095,0.643-8.466-0.468-12.988
						c-0.289-1.184,0.436-2.381,1.619-2.672c1.184-0.287,2.381,0.436,2.672,1.62c1.261,5.15,1.434,10.159,0.511,14.886
						c-0.725,3.711-1.945,6.48-3.021,8.923c-1.341,3.043-2.228,5.055-1.645,7.504c0.567,2.383,2.381,4.559,5.393,6.469
						c1.031,0.653,1.337,2.019,0.684,3.047C1686.051,1503.47,1685.335,1503.832,1684.604,1503.832z"/>
					<path style="fill:#363E44;" d="M1702.103,1524.875c-1.182,0-2.161-0.936-2.204-2.128c-0.045-1.219,0.906-2.243,2.126-2.286
						c1.622-0.06,3.181-0.369,4.634-0.921c5.156-1.954,8.665-6.866,8.936-12.514c0.06-1.218,1.102-2.18,2.312-2.1
						c1.218,0.058,2.159,1.093,2.1,2.312c-0.356,7.405-4.981,13.855-11.783,16.434c-1.904,0.72-3.936,1.126-6.04,1.201
						C1702.159,1524.875,1702.131,1524.875,1702.103,1524.875z"/>
					<path style="fill:#363E44;" d="M1576.999,1486.492c-0.509,0-1.018-0.172-1.434-0.528c-3.155-2.693-5.822-6.303-7.711-10.444
						c-2.476-5.419-3.375-11.198-2.532-16.273c0.895-5.391,3.629-9.385,7.703-11.244c3.088-1.404,6.625-1.427,10.241-0.076
						c1.141,0.429,1.719,1.702,1.292,2.844c-0.431,1.143-1.701,1.71-2.844,1.292c-2.491-0.936-4.863-0.953-6.855-0.041
						c-2.693,1.229-4.533,4.05-5.18,7.946c-0.699,4.216,0.08,9.087,2.193,13.717c1.624,3.556,3.892,6.64,6.562,8.917
						c0.927,0.791,1.037,2.184,0.246,3.114C1578.241,1486.229,1577.622,1486.492,1576.999,1486.492z"/>
					<g>
						<path style="fill:#FFFFFF;" d="M1668.114,1467.757c0,0-5.327,2.918-12.856,4.854c-7.023,1.806-22.114-9.882-22.114-9.882
							s-17.816-1.304-21.959-7.639c-3.696-5.651-5.483-10.366-5.483-10.366s5.481-3.003,13.182-4.937
							c6.972-1.751,19.255,10.577,19.255,10.577s17.455-2.31,21.526,2.884C1665.375,1460.529,1668.114,1467.757,1668.114,1467.757z"
							/>
						<path style="fill:#363E44;" d="M1630.979,1472.298c-9.149-3.377-15.707-10.939-19.847-17.292
							c0.224-1.882,0.645-3.767,1.33-5.623c1.406-3.806,3.667-7.042,6.469-9.605c6.965-1.744,15.735-2.612,23.906,0.405
							c7.178,2.649,12.756,7.874,16.828,13.071c0.825,4.262,0.56,8.791-1.053,13.162c-0.841,2.277-1.995,4.346-3.378,6.198
							C1648.214,1474.415,1639.29,1475.365,1630.979,1472.298z"/>
					</g>
				</g>
				<g>
					<path style="fill:#FFFFFF;" d="M1768.06,1151.065c-8.82-37.846-46.659-61.378-84.514-52.56
						c-1.941,0.452-3.834,0.999-5.696,1.599c-16.42-20.41-43.633-30.798-70.856-24.457c-27.222,6.342-47.04,27.685-52.746,53.249
						c-1.936,0.284-3.876,0.63-5.817,1.082c-37.856,8.819-61.393,46.647-52.573,84.493c6.719,28.829,30.28,49.332,57.855,53.578
						l24.015,103.042l186.137-43.358l-24.015-103.042C1762.71,1208.696,1774.779,1179.894,1768.06,1151.065z"/>
					<path style="fill:#363E44;" d="M1573.268,1270.52c-1.095,0-2.044-0.813-2.189-1.926c-0.155-1.21,0.699-2.316,1.909-2.474
						c2.305-0.295,4.621-0.714,6.885-1.24c23.19-5.404,41.574-22.119,49.173-44.712c0.39-1.154,1.643-1.775,2.797-1.391
						c1.156,0.39,1.779,1.641,1.391,2.797c-8.093,24.057-27.665,41.854-52.361,47.606c-2.406,0.561-4.871,1.005-7.321,1.322
						C1573.456,1270.513,1573.361,1270.52,1573.268,1270.52z"/>
				</g>
			</g>
		</g>
		<g>
			<path style="fill:#BC8271;" d="M1736.666,1666.839c-13.851-4.739-6.87-31.611,2.318-57.15
				c6.747-18.753,16.184-35.637,34.929-31.519c21.792,4.788,12.786,27.266,5.153,44.141
				C1767.738,1647.355,1750.208,1671.472,1736.666,1666.839z"/>
			<path style="fill:#BC8271;" d="M1767.374,1683.379c-14.605-5.058-11.327-27.687-1.326-55.54
				c7.344-20.452,17.519-43.307,37.309-38.959c23.007,5.054,13.225,33.993,4.965,52.407
				C1796.062,1668.617,1781.653,1688.323,1767.374,1683.379z"/>
			<path style="fill:#BC8271;" d="M1806.112,1692.352c-15.474-4.449-14.499-23.243-6.886-48.094
				c5.59-18.248,13.859-38.647,34.587-34.851c24.098,4.414,16.813,30.231,10.087,46.667
				C1833.919,1680.468,1821.24,1696.702,1806.112,1692.352z"/>
			<path style="fill:#BC8271;" d="M1838.821,1695.863c-12.837-3.619-10.638-19.429-4.636-38.929
				c4.407-14.318,11.002-30.309,28.172-27.164c19.962,3.656,14.243,23.919,8.877,36.803
				C1863.271,1685.695,1851.371,1699.401,1838.821,1695.863z"/>
			<path style="fill:#363E44;" d="M1767.375,1637.163c-0.278,0-0.558-0.052-0.83-0.162c-1.13-0.459-1.676-1.747-1.216-2.877
				l16.206-39.927c0.462-1.132,1.751-1.671,2.877-1.216c1.13,0.459,1.676,1.747,1.216,2.877l-16.206,39.927
				C1769.072,1636.643,1768.246,1637.163,1767.375,1637.163z"/>
			<path style="fill:#363E44;" d="M1802.253,1649.466c-0.287,0-0.578-0.056-0.86-0.175c-1.124-0.474-1.648-1.77-1.173-2.894
				l15.403-36.444c0.474-1.121,1.766-1.647,2.894-1.173c1.123,0.474,1.647,1.771,1.173,2.894l-15.404,36.444
				C1803.931,1648.959,1803.113,1649.466,1802.253,1649.466z"/>
			<path style="fill:#363E44;" d="M1838.822,1661.818c-0.272,0-0.55-0.05-0.817-0.157c-1.132-0.451-1.686-1.734-1.234-2.868
				l11.608-29.149c0.449-1.132,1.736-1.688,2.868-1.233c1.132,0.451,1.686,1.734,1.234,2.868l-11.608,29.149
				C1840.53,1661.292,1839.699,1661.818,1838.822,1661.818z"/>
		</g>
	</g>
</g>
</svg>
